<?xml version="1.0" encoding="utf-8"?>
<!-- Generator: Adobe Illustrator 16.0.0, SVG Export Plug-In . SVG Version: 6.00 Build 0)  -->
<!DOCTYPE svg PUBLIC "-//W3C//DTD SVG 1.1//EN" "http://www.w3.org/Graphics/SVG/1.1/DTD/svg11.dtd">
<svg version="1.1" xmlns="http://www.w3.org/2000/svg" xmlns:xlink="http://www.w3.org/1999/xlink" x="0px" y="0px" width="1024px"
	 height="1024px" viewBox="0 0 1024 1024" enable-background="new 0 0 1024 1024" xml:space="preserve">
<g id="Layer_1" display="none">
</g>
<g id="Layer_3">
	<g>
		<path fill="current" d="M487.647,585.599c2.244,2.402,5.387,3.779,8.624,3.779s6.38-1.377,8.554-3.717
			c12.216-12.752,22.739-22.115,33.025-29.402c2.701-1.842,4.11-4.795,3.789-7.9c-0.386-3.668-3.096-6.805-7.429-8.607
			c-0.275-0.111-0.551-0.205-0.843-0.283c-27.692-7.24-46.225-7.271-73.91-0.127c-0.291,0.07-0.567,0.166-0.843,0.277
			c-4.34,1.787-7.064,4.906-7.467,8.584c-0.339,3.104,1.063,6.057,3.663,7.859C465.216,563.538,475.359,572.649,487.647,585.599z
			 M523.61,550.581c-8.616,6.732-17.47,14.885-27.339,25.107c-9.924-10.387-18.564-18.428-27.165-25.219
			C489.333,545.989,503.951,546.036,523.61,550.581z"/>
		<path fill="current" d="M405.238,450.338c-9.248-0.166-17.32,32.497-17.502,43.083c-0.181,10.592,6.743,43.509,15.982,43.667
			c9.246,0.156,17.312-32.501,17.5-43.085C421.384,483.418,414.469,450.496,405.238,450.338z"/>
		<path fill="current" d="M429.796,628.54c-1.11-3.443-4.788-5.324-8.23-4.215c-3.434,1.111-5.324,4.799-4.214,8.23
			c6.703,20.754,26.094,34.695,48.415,34.695c12.642-0.047,22.928-3.709,30.616-10.877c7.71,7.176,18.012,10.83,30.787,10.877
			c22.156,0,41.532-13.949,48.227-34.695c1.11-3.441-0.779-7.119-4.214-8.23c-3.457-1.117-7.12,0.789-8.23,4.215
			c-4.946,15.326-19.32,25.637-35.916,25.637c-10.594-0.039-18.391-3.176-23.873-9.607c-0.504-0.584-0.977-1.223-1.433-1.877
			c-2.458-3.488-8.246-3.488-10.696,0c-0.457,0.646-0.913,1.285-1.457,1.898c-5.388,6.324-13.413,9.547-23.983,9.586
			C449.132,654.177,434.75,643.866,429.796,628.54z"/>
		<path fill="current" d="M587.558,534.378c9.255,0.158,17.304-32.5,17.501-43.092c0.173-10.577-6.734-43.501-15.981-43.665
			c-9.246-0.166-17.304,32.497-17.493,43.083C571.396,501.298,578.318,534.214,587.558,534.378z"/>
		<path fill="current" d="M254.865,606.644c-1.631-3.23-5.562-4.537-8.783-2.898l-57.764,29.094
			c-3.23,1.623-4.521,5.553-2.898,8.775c1.15,2.283,3.449,3.6,5.845,3.6c0.983,0,1.992-0.221,2.937-0.701l57.765-29.096
			C255.195,613.794,256.487,609.866,254.865,606.644z"/>
		<path fill="current" d="M845.481,559.647l-62.688-9.24c-4.3-27.094-25.929-162.386-36.964-213.708l-0.377-1.394
			c-1.292-3.962-2.6-8.648-4.033-13.744l-0.448-1.607c-9.247-33.096-21.913-78.416-55.308-86.119
			c-3.441-0.796-6.994-1.197-10.57-1.197c-45.044,0-85.614,79.093-102.966,118.325c-10.287-2.087-33.892-6.237-58.789-6.237
			c-25.558,0-53.181,3.678-64.38,5.348c-12.177-27.977-55.016-117.435-104.479-117.435c-3.584,0-7.145,0.401-10.555,1.197
			c-33.396,7.703-46.068,53.023-55.322,86.119l-0.323,1.15c-1.479,5.269-2.827,10.121-4.253,14.531l-0.362,1.378
			c-10.964,51.039-32.592,186.299-36.893,213.393l-62.679,9.24c-3.576,0.518-6.041,3.842-5.514,7.418
			c0.52,3.576,3.859,6.064,7.42,5.514l67.437-9.941c2.827-0.416,5.064-2.621,5.505-5.449c0.253-1.598,25.44-161.229,37.436-217.118
			l0.189-0.74c1.37-4.229,2.779-9.255,4.301-14.713l0.323-1.149c8.371-29.938,19.831-70.934,45.674-76.896
			c2.457-0.567,5.018-0.858,7.608-0.858c36.877,0,76.707,71.737,94.429,114.127c1.174,2.796,4.119,4.434,7.111,3.93
			c0.354-0.055,36.105-5.962,67.319-5.962c30.969,0,60.836,6.979,61.135,7.057c3.119,0.749,6.271-0.858,7.514-3.781
			c23.992-55.772,61.042-115.355,93.105-115.355c2.584,0,5.143,0.292,7.625,0.866c25.834,5.962,37.293,46.958,45.658,76.904
			l0.457,1.607c1.48,5.285,2.843,10.145,4.088,13.925l0.204,0.749c12.075,56.205,37.247,215.833,37.507,217.435
			c0.449,2.826,2.679,5.039,5.506,5.449l67.444,9.939c0.323,0.047,0.646,0.07,0.96,0.07c3.191,0,5.987-2.34,6.459-5.584
			C851.529,563.489,849.057,560.165,845.481,559.647z"/>
		<path fill="current" d="M831.264,632.839l-57.771-29.094c-3.229-1.646-7.159-0.332-8.774,2.898c-1.63,3.223-0.33,7.15,2.898,8.773
			l57.772,29.096c0.938,0.48,1.945,0.701,2.93,0.701c2.395,0,4.702-1.316,5.844-3.6
			C835.793,638.392,834.494,634.462,831.264,632.839z"/>
		<path fill="current" d="M747.225,655.478c-1.425-1.072-3.229-1.482-4.985-1.213c-1.757,0.291-3.316,1.281-4.324,2.756
			l-9.191,13.414c-39.87,51.943-125.257,83.904-217.778,81.117c-0.41-0.008-0.765,0.141-1.15,0.197
			c-0.386-0.064-0.756-0.215-1.158-0.197c-92.396,2.828-177.908-29.174-217.572-80.834l-9.396-13.697
			c-1.009-1.473-2.568-2.465-4.325-2.756c-1.771-0.262-3.561,0.148-4.985,1.213l-59.946,44.783
			c-2.891,2.158-3.481,6.262-1.322,9.152c2.165,2.891,6.245,3.473,9.151,1.322l54.496-40.703l5.75,8.371
			C321.766,732.19,404.158,764.8,497.413,764.8c3.844,0,7.719-0.064,11.603-0.166c0.275-0.01,0.504-0.143,0.779-0.174
			c0.268,0.039,0.496,0.164,0.78,0.174c3.882,0.109,7.75,0.166,11.601,0.166c93.248-0.008,175.657-32.625,217.133-86.68l5.545-8.08
			l54.488,40.703c2.898,2.15,6.986,1.568,9.152-1.322c2.158-2.891,1.567-6.994-1.323-9.152L747.225,655.478z"/>
	</g>
</g>
<g id="Layer_2">
</g>
</svg>
